<mxfile host="app.diagrams.net" agent="Mozilla/5.0 (Windows NT 10.0; Win64; x64) AppleWebKit/537.36 (KHTML, like Gecko) Chrome/133.0.0.0 Safari/537.36" version="26.0.16" pages="2">
  <diagram id="3QaGT0ZacJiaZTLp5RRD" name="페이지-1">
    <mxGraphModel dx="974" dy="428" grid="1" gridSize="10" guides="1" tooltips="1" connect="1" arrows="1" fold="1" page="1" pageScale="1" pageWidth="827" pageHeight="1169" math="0" shadow="0">
      <root>
        <mxCell id="0" />
        <mxCell id="1" parent="0" />
        <mxCell id="JAbGeRoic4GMC7CvDihA-7" value="" style="edgeStyle=orthogonalEdgeStyle;rounded=0;orthogonalLoop=1;jettySize=auto;html=1;" parent="1" source="JAbGeRoic4GMC7CvDihA-2" target="JAbGeRoic4GMC7CvDihA-6" edge="1">
          <mxGeometry relative="1" as="geometry" />
        </mxCell>
        <mxCell id="JAbGeRoic4GMC7CvDihA-8" value="" style="edgeStyle=orthogonalEdgeStyle;rounded=0;orthogonalLoop=1;jettySize=auto;html=1;" parent="1" source="JAbGeRoic4GMC7CvDihA-2" target="JAbGeRoic4GMC7CvDihA-6" edge="1">
          <mxGeometry relative="1" as="geometry" />
        </mxCell>
        <mxCell id="JAbGeRoic4GMC7CvDihA-9" value="" style="edgeStyle=orthogonalEdgeStyle;rounded=0;orthogonalLoop=1;jettySize=auto;html=1;" parent="1" source="JAbGeRoic4GMC7CvDihA-2" target="JAbGeRoic4GMC7CvDihA-6" edge="1">
          <mxGeometry relative="1" as="geometry" />
        </mxCell>
        <mxCell id="JAbGeRoic4GMC7CvDihA-2" value="기안자" style="shape=umlActor;verticalLabelPosition=bottom;verticalAlign=top;html=1;outlineConnect=0;" parent="1" vertex="1">
          <mxGeometry x="90" y="610" width="30" height="60" as="geometry" />
        </mxCell>
        <mxCell id="JAbGeRoic4GMC7CvDihA-6" value="결재자" style="shape=umlActor;verticalLabelPosition=bottom;verticalAlign=top;html=1;outlineConnect=0;" parent="1" vertex="1">
          <mxGeometry x="90" y="750" width="30" height="60" as="geometry" />
        </mxCell>
        <mxCell id="JAbGeRoic4GMC7CvDihA-13" value="&lt;div&gt;&lt;br&gt;&lt;/div&gt;&lt;div&gt;&lt;br&gt;&lt;/div&gt;&lt;div&gt;결재진행&lt;/div&gt;&lt;div&gt;&lt;br&gt;&lt;/div&gt;" style="ellipse;whiteSpace=wrap;html=1;verticalAlign=top;" parent="1" vertex="1">
          <mxGeometry x="200" y="670" width="80" height="80" as="geometry" />
        </mxCell>
        <mxCell id="JAbGeRoic4GMC7CvDihA-15" value="" style="endArrow=none;dashed=1;html=1;dashPattern=1 3;strokeWidth=2;rounded=0;exitX=0.5;exitY=0;exitDx=0;exitDy=0;" parent="1" source="JAbGeRoic4GMC7CvDihA-13" target="JAbGeRoic4GMC7CvDihA-16" edge="1">
          <mxGeometry width="50" height="50" relative="1" as="geometry">
            <mxPoint x="190" y="650" as="sourcePoint" />
            <mxPoint x="150" y="600" as="targetPoint" />
          </mxGeometry>
        </mxCell>
        <mxCell id="JAbGeRoic4GMC7CvDihA-20" value="" style="edgeStyle=orthogonalEdgeStyle;rounded=0;orthogonalLoop=1;jettySize=auto;html=1;" parent="1" source="JAbGeRoic4GMC7CvDihA-16" target="JAbGeRoic4GMC7CvDihA-19" edge="1">
          <mxGeometry relative="1" as="geometry" />
        </mxCell>
        <mxCell id="JAbGeRoic4GMC7CvDihA-16" value="협조자" style="shape=umlActor;verticalLabelPosition=bottom;verticalAlign=top;html=1;outlineConnect=0;" parent="1" vertex="1">
          <mxGeometry x="90" y="525" width="30" height="60" as="geometry" />
        </mxCell>
        <mxCell id="JAbGeRoic4GMC7CvDihA-19" value="&lt;div&gt;&lt;br&gt;&lt;/div&gt;&lt;div&gt;&lt;br&gt;&lt;/div&gt;&lt;div&gt;의견제출&lt;/div&gt;" style="ellipse;whiteSpace=wrap;html=1;verticalAlign=top;" parent="1" vertex="1">
          <mxGeometry x="250" y="515" width="80" height="80" as="geometry" />
        </mxCell>
        <mxCell id="66cARiBBRBYHf0YHKafe-2" value="대결자" style="shape=umlActor;verticalLabelPosition=bottom;verticalAlign=top;html=1;outlineConnect=0;" vertex="1" parent="1">
          <mxGeometry x="220" y="760" width="30" height="60" as="geometry" />
        </mxCell>
        <mxCell id="66cARiBBRBYHf0YHKafe-4" value="" style="endArrow=classic;startArrow=classic;html=1;rounded=0;entryX=0;entryY=0.3333333333333333;entryDx=0;entryDy=0;entryPerimeter=0;fillColor=#f8cecc;strokeColor=#b85450;" edge="1" parent="1" source="JAbGeRoic4GMC7CvDihA-6" target="66cARiBBRBYHf0YHKafe-2">
          <mxGeometry width="50" height="50" relative="1" as="geometry">
            <mxPoint x="150" y="805" as="sourcePoint" />
            <mxPoint x="200" y="755" as="targetPoint" />
          </mxGeometry>
        </mxCell>
        <mxCell id="66cARiBBRBYHf0YHKafe-5" value="부재시" style="edgeLabel;html=1;align=center;verticalAlign=middle;resizable=0;points=[];" vertex="1" connectable="0" parent="66cARiBBRBYHf0YHKafe-4">
          <mxGeometry x="0.0773" relative="1" as="geometry">
            <mxPoint as="offset" />
          </mxGeometry>
        </mxCell>
        <mxCell id="66cARiBBRBYHf0YHKafe-11" value="" style="endArrow=classic;html=1;rounded=0;exitX=1;exitY=0.5;exitDx=0;exitDy=0;entryX=0;entryY=0.5;entryDx=0;entryDy=0;" edge="1" parent="1" source="JAbGeRoic4GMC7CvDihA-13" target="66cARiBBRBYHf0YHKafe-12">
          <mxGeometry width="50" height="50" relative="1" as="geometry">
            <mxPoint x="270" y="760" as="sourcePoint" />
            <mxPoint x="320" y="710" as="targetPoint" />
          </mxGeometry>
        </mxCell>
        <mxCell id="66cARiBBRBYHf0YHKafe-13" value="Text" style="edgeLabel;html=1;align=center;verticalAlign=middle;resizable=0;points=[];" vertex="1" connectable="0" parent="66cARiBBRBYHf0YHKafe-11">
          <mxGeometry x="-0.0637" y="-1" relative="1" as="geometry">
            <mxPoint as="offset" />
          </mxGeometry>
        </mxCell>
        <mxCell id="66cARiBBRBYHf0YHKafe-18" value="종결" style="edgeLabel;html=1;align=center;verticalAlign=middle;resizable=0;points=[];" vertex="1" connectable="0" parent="66cARiBBRBYHf0YHKafe-11">
          <mxGeometry x="-0.0437" y="-2" relative="1" as="geometry">
            <mxPoint as="offset" />
          </mxGeometry>
        </mxCell>
        <mxCell id="66cARiBBRBYHf0YHKafe-12" value="&lt;div&gt;&lt;br&gt;&lt;/div&gt;&lt;div&gt;&lt;br&gt;&lt;/div&gt;&lt;div&gt;결제완료&lt;/div&gt;&lt;div&gt;&lt;br&gt;&lt;/div&gt;&lt;div&gt;&lt;br&gt;&lt;/div&gt;" style="ellipse;whiteSpace=wrap;html=1;verticalAlign=top;" vertex="1" parent="1">
          <mxGeometry x="380" y="670" width="80" height="80" as="geometry" />
        </mxCell>
        <mxCell id="66cARiBBRBYHf0YHKafe-17" value="" style="endArrow=classic;html=1;rounded=0;exitX=0.75;exitY=0.1;exitDx=0;exitDy=0;exitPerimeter=0;" edge="1" parent="1" source="JAbGeRoic4GMC7CvDihA-6">
          <mxGeometry width="50" height="50" relative="1" as="geometry">
            <mxPoint x="150" y="760" as="sourcePoint" />
            <mxPoint x="200" y="710" as="targetPoint" />
          </mxGeometry>
        </mxCell>
      </root>
    </mxGraphModel>
  </diagram>
  <diagram id="l6JmRzFYH4vMQ-xJuT_-" name="페이지-2">
    <mxGraphModel dx="974" dy="428" grid="1" gridSize="10" guides="1" tooltips="1" connect="1" arrows="1" fold="1" page="1" pageScale="1" pageWidth="827" pageHeight="1169" math="0" shadow="0">
      <root>
        <mxCell id="0" />
        <mxCell id="1" parent="0" />
        <mxCell id="54n4LJPjrRcseGLzzfWc-1" value="" style="edgeStyle=orthogonalEdgeStyle;rounded=0;orthogonalLoop=1;jettySize=auto;html=1;" edge="1" parent="1" source="54n4LJPjrRcseGLzzfWc-4" target="54n4LJPjrRcseGLzzfWc-5">
          <mxGeometry relative="1" as="geometry" />
        </mxCell>
        <mxCell id="54n4LJPjrRcseGLzzfWc-2" value="" style="edgeStyle=orthogonalEdgeStyle;rounded=0;orthogonalLoop=1;jettySize=auto;html=1;" edge="1" parent="1" source="54n4LJPjrRcseGLzzfWc-4" target="54n4LJPjrRcseGLzzfWc-5">
          <mxGeometry relative="1" as="geometry" />
        </mxCell>
        <mxCell id="54n4LJPjrRcseGLzzfWc-3" value="" style="edgeStyle=orthogonalEdgeStyle;rounded=0;orthogonalLoop=1;jettySize=auto;html=1;" edge="1" parent="1" source="54n4LJPjrRcseGLzzfWc-4" target="54n4LJPjrRcseGLzzfWc-5">
          <mxGeometry relative="1" as="geometry" />
        </mxCell>
        <mxCell id="54n4LJPjrRcseGLzzfWc-4" value="기안자" style="shape=umlActor;verticalLabelPosition=bottom;verticalAlign=top;html=1;outlineConnect=0;" vertex="1" parent="1">
          <mxGeometry x="90" y="610" width="30" height="60" as="geometry" />
        </mxCell>
        <mxCell id="54n4LJPjrRcseGLzzfWc-5" value="결재자" style="shape=umlActor;verticalLabelPosition=bottom;verticalAlign=top;html=1;outlineConnect=0;fillColor=#dae8fc;strokeColor=#6c8ebf;" vertex="1" parent="1">
          <mxGeometry x="90" y="750" width="30" height="60" as="geometry" />
        </mxCell>
        <mxCell id="fsTA3o1gqL7Sm_SV5eHb-6" style="edgeStyle=orthogonalEdgeStyle;rounded=0;orthogonalLoop=1;jettySize=auto;html=1;exitX=0;exitY=0;exitDx=0;exitDy=0;fillColor=#f8cecc;strokeColor=#b85450;" edge="1" parent="1" source="54n4LJPjrRcseGLzzfWc-6" target="54n4LJPjrRcseGLzzfWc-4">
          <mxGeometry relative="1" as="geometry" />
        </mxCell>
        <mxCell id="fsTA3o1gqL7Sm_SV5eHb-7" value="반려" style="edgeLabel;html=1;align=center;verticalAlign=middle;resizable=0;points=[];" vertex="1" connectable="0" parent="fsTA3o1gqL7Sm_SV5eHb-6">
          <mxGeometry x="-0.1336" y="-4" relative="1" as="geometry">
            <mxPoint as="offset" />
          </mxGeometry>
        </mxCell>
        <mxCell id="54n4LJPjrRcseGLzzfWc-6" value="&lt;div&gt;&lt;br&gt;&lt;/div&gt;&lt;div&gt;&lt;br&gt;&lt;/div&gt;&lt;div&gt;결재진행&lt;/div&gt;&lt;div&gt;&lt;br&gt;&lt;/div&gt;" style="ellipse;whiteSpace=wrap;html=1;verticalAlign=top;" vertex="1" parent="1">
          <mxGeometry x="200" y="670" width="80" height="80" as="geometry" />
        </mxCell>
        <mxCell id="54n4LJPjrRcseGLzzfWc-7" value="" style="endArrow=none;dashed=1;html=1;dashPattern=1 3;strokeWidth=2;rounded=0;exitX=0.5;exitY=0;exitDx=0;exitDy=0;" edge="1" parent="1" source="54n4LJPjrRcseGLzzfWc-6" target="54n4LJPjrRcseGLzzfWc-9">
          <mxGeometry width="50" height="50" relative="1" as="geometry">
            <mxPoint x="190" y="650" as="sourcePoint" />
            <mxPoint x="150" y="600" as="targetPoint" />
          </mxGeometry>
        </mxCell>
        <mxCell id="54n4LJPjrRcseGLzzfWc-8" value="" style="edgeStyle=orthogonalEdgeStyle;rounded=0;orthogonalLoop=1;jettySize=auto;html=1;" edge="1" parent="1" source="54n4LJPjrRcseGLzzfWc-9" target="54n4LJPjrRcseGLzzfWc-10">
          <mxGeometry relative="1" as="geometry" />
        </mxCell>
        <mxCell id="54n4LJPjrRcseGLzzfWc-9" value="협조자" style="shape=umlActor;verticalLabelPosition=bottom;verticalAlign=top;html=1;outlineConnect=0;" vertex="1" parent="1">
          <mxGeometry x="90" y="525" width="30" height="60" as="geometry" />
        </mxCell>
        <mxCell id="54n4LJPjrRcseGLzzfWc-10" value="&lt;div&gt;&lt;br&gt;&lt;/div&gt;&lt;div&gt;&lt;br&gt;&lt;/div&gt;&lt;div&gt;의견제출&lt;/div&gt;" style="ellipse;whiteSpace=wrap;html=1;verticalAlign=top;" vertex="1" parent="1">
          <mxGeometry x="250" y="515" width="80" height="80" as="geometry" />
        </mxCell>
        <mxCell id="54n4LJPjrRcseGLzzfWc-11" value="대결자" style="shape=umlActor;verticalLabelPosition=bottom;verticalAlign=top;html=1;outlineConnect=0;fillColor=#dae8fc;strokeColor=#6c8ebf;" vertex="1" parent="1">
          <mxGeometry x="220" y="760" width="30" height="60" as="geometry" />
        </mxCell>
        <mxCell id="54n4LJPjrRcseGLzzfWc-12" value="" style="endArrow=classic;startArrow=classic;html=1;rounded=0;entryX=0;entryY=0.3333333333333333;entryDx=0;entryDy=0;entryPerimeter=0;fillColor=#f8cecc;strokeColor=#b85450;" edge="1" parent="1" source="54n4LJPjrRcseGLzzfWc-5" target="54n4LJPjrRcseGLzzfWc-11">
          <mxGeometry width="50" height="50" relative="1" as="geometry">
            <mxPoint x="150" y="805" as="sourcePoint" />
            <mxPoint x="200" y="755" as="targetPoint" />
          </mxGeometry>
        </mxCell>
        <mxCell id="54n4LJPjrRcseGLzzfWc-13" value="부재시" style="edgeLabel;html=1;align=center;verticalAlign=middle;resizable=0;points=[];" vertex="1" connectable="0" parent="54n4LJPjrRcseGLzzfWc-12">
          <mxGeometry x="0.0773" relative="1" as="geometry">
            <mxPoint as="offset" />
          </mxGeometry>
        </mxCell>
        <mxCell id="54n4LJPjrRcseGLzzfWc-18" value="" style="endArrow=classic;html=1;rounded=0;exitX=0.75;exitY=0.1;exitDx=0;exitDy=0;exitPerimeter=0;" edge="1" parent="1" source="54n4LJPjrRcseGLzzfWc-5">
          <mxGeometry width="50" height="50" relative="1" as="geometry">
            <mxPoint x="150" y="760" as="sourcePoint" />
            <mxPoint x="200" y="710" as="targetPoint" />
          </mxGeometry>
        </mxCell>
        <mxCell id="fsTA3o1gqL7Sm_SV5eHb-8" value="" style="endArrow=classic;html=1;rounded=0;exitX=1;exitY=0.5;exitDx=0;exitDy=0;entryX=0;entryY=0.5;entryDx=0;entryDy=0;" edge="1" parent="1" source="54n4LJPjrRcseGLzzfWc-6">
          <mxGeometry width="50" height="50" relative="1" as="geometry">
            <mxPoint x="390" y="750" as="sourcePoint" />
            <mxPoint x="370" y="710" as="targetPoint" />
          </mxGeometry>
        </mxCell>
        <mxCell id="fsTA3o1gqL7Sm_SV5eHb-9" value="수정요청" style="edgeLabel;html=1;align=center;verticalAlign=middle;resizable=0;points=[];" vertex="1" connectable="0" parent="fsTA3o1gqL7Sm_SV5eHb-8">
          <mxGeometry x="0.0149" y="2" relative="1" as="geometry">
            <mxPoint as="offset" />
          </mxGeometry>
        </mxCell>
        <mxCell id="6YG0qnFzWDe5KEvOB_Np-6" style="edgeStyle=orthogonalEdgeStyle;rounded=0;orthogonalLoop=1;jettySize=auto;html=1;exitX=0.5;exitY=0.5;exitDx=0;exitDy=0;exitPerimeter=0;" edge="1" parent="1" source="fsTA3o1gqL7Sm_SV5eHb-10" target="6YG0qnFzWDe5KEvOB_Np-2">
          <mxGeometry relative="1" as="geometry" />
        </mxCell>
        <mxCell id="6YG0qnFzWDe5KEvOB_Np-7" value="승인&amp;nbsp;" style="edgeLabel;html=1;align=center;verticalAlign=middle;resizable=0;points=[];" vertex="1" connectable="0" parent="6YG0qnFzWDe5KEvOB_Np-6">
          <mxGeometry x="-0.0489" y="1" relative="1" as="geometry">
            <mxPoint as="offset" />
          </mxGeometry>
        </mxCell>
        <mxCell id="fsTA3o1gqL7Sm_SV5eHb-10" value="인사관리자&lt;div&gt;&lt;br&gt;&lt;/div&gt;" style="shape=umlActor;verticalLabelPosition=bottom;verticalAlign=top;html=1;outlineConnect=0;fillColor=#dae8fc;strokeColor=#6c8ebf;" vertex="1" parent="1">
          <mxGeometry x="380" y="680" width="30" height="60" as="geometry" />
        </mxCell>
        <mxCell id="6YG0qnFzWDe5KEvOB_Np-2" value="&lt;div&gt;&lt;br&gt;&lt;/div&gt;&lt;div&gt;&lt;br&gt;&lt;/div&gt;&lt;div&gt;제한해제&lt;/div&gt;" style="ellipse;whiteSpace=wrap;html=1;verticalAlign=top;" vertex="1" parent="1">
          <mxGeometry x="530" y="680" width="80" height="80" as="geometry" />
        </mxCell>
        <mxCell id="6YG0qnFzWDe5KEvOB_Np-8" value="문서수정,삭제" style="ellipse;whiteSpace=wrap;html=1;" vertex="1" parent="1">
          <mxGeometry x="510" y="530" width="120" height="80" as="geometry" />
        </mxCell>
        <mxCell id="6YG0qnFzWDe5KEvOB_Np-9" value="" style="endArrow=classic;html=1;rounded=0;entryX=0.5;entryY=1;entryDx=0;entryDy=0;exitX=0.5;exitY=0;exitDx=0;exitDy=0;" edge="1" parent="1" source="6YG0qnFzWDe5KEvOB_Np-2" target="6YG0qnFzWDe5KEvOB_Np-8">
          <mxGeometry width="50" height="50" relative="1" as="geometry">
            <mxPoint x="500" y="680" as="sourcePoint" />
            <mxPoint x="550" y="630" as="targetPoint" />
          </mxGeometry>
        </mxCell>
      </root>
    </mxGraphModel>
  </diagram>
</mxfile>
